<svg width="56" height="61" viewBox="0 0 56 61" fill="none" xmlns="http://www.w3.org/2000/svg">
<g clip-path="url(#clip0_1_48)">
<mask id="mask0_1_48" style="mask-type:luminance" maskUnits="userSpaceOnUse" x="0" y="0" width="56" height="61">
<path d="M56 0.714233H0V60.7142H56V0.714233Z" fill="white"/>
</mask>
<g mask="url(#mask0_1_48)">
<path d="M11.6549 51.2323C2.15933 45.3087 -0.217023 30.3016 8.02625 17.0941C20.687 -3.17248 34.4028 5.43973 40.4669 7.56065C49.2131 10.6135 51.8359 18.4973 52.7135 25.9848C54.37 40.0814 48.8285 54.5315 36.4734 57.5093C22.876 60.7871 19.0699 55.849 11.6549 51.2323Z" fill="#F2EBE4"/>
<path d="M14.5518 56.7835C2.94371 56.7848 1.0231 41.2331 1.00478 41.0753C0.968122 40.7558 1.14549 40.4516 1.43002 40.3478C1.71611 40.2419 2.02891 40.3664 2.18298 40.6433C2.23082 40.7299 7.06789 49.2852 13.5643 49.2852C19.4796 49.2852 20.7212 45.6096 20.7212 42.5257C20.7212 41.283 20.3997 40.3445 19.7383 39.6562C18.7788 38.6584 17.0788 38.1885 14.6963 38.2657C14.4226 38.2577 14.1822 38.1 14.0846 37.831C12.5747 33.6702 12.5573 31.3205 12.5573 31.2227C12.5573 30.8463 12.8421 30.5411 13.1934 30.5411H17.3484C17.8153 30.3937 20.3916 29.4498 20.3503 26.5753C20.3357 25.5515 20.0726 24.7914 19.5687 24.3158C18.7925 23.5836 17.6065 23.6369 17.1337 23.6924C14.2977 24.0299 11.321 26.0275 8.75118 29.317C8.63065 29.4711 8.45329 29.5606 8.26567 29.5613C8.26505 29.5613 8.26411 29.5613 8.26318 29.5613C8.07681 29.5613 7.89944 29.4738 7.7786 29.3213C4.70682 25.4527 3.84608 22.514 3.81098 22.3905C3.73332 22.1182 3.82216 21.8227 4.03307 21.65C4.32196 21.4133 11.1734 15.866 17.6891 16.8182C20.358 17.2069 22.5834 18.6373 24.3033 21.0702C25.785 23.0757 26.4041 25.1878 26.1357 27.3351C25.785 30.142 24.007 32.2404 23.0335 33.1999C23.583 33.6835 24.3859 34.4656 25.0712 35.4308C25.6256 36.2116 26.5004 36.6529 27.3987 36.6196C28.2392 36.585 28.9795 36.1364 29.4302 35.3895C29.5439 35.1965 29.6656 34.9569 29.8216 34.6533C31.1691 32.0211 35.27 24.0109 43.0897 24.0109C52.5489 24.0109 55.1531 34.3951 55.419 35.5792C56.7665 41.5852 56.0726 49.5914 50.0819 54.0484C46.0071 57.0803 41.4576 57.3273 36.5591 54.7833C34.8587 53.9 30.8603 50.0853 30.0589 44.504C30.0142 44.1924 30.1744 43.8889 30.4466 43.7698C30.7168 43.6506 31.0312 43.7445 31.2032 44.0007C32.3358 45.6808 36.5833 49.7811 42.5541 48.6149C48.4803 47.4554 51.8978 43.9515 51.4722 39.4712C51.2914 37.5648 50.3049 31.3415 45.2063 31.2796C41.3918 31.2177 39.684 34.1987 38.3166 36.5823C38.1551 36.8639 38.0004 37.1341 37.8494 37.3851C36.4112 39.782 34.1853 42.6395 31.7481 42.6395C30.203 42.6395 28.3144 42.1803 26.9051 41.1818C26.8657 43.8729 26.1848 48.7234 23.4854 52.3637C21.3384 55.2585 18.3772 56.7455 14.6835 56.7828C14.64 56.7835 14.5953 56.7835 14.5518 56.7835ZM2.89711 44.034C4.0368 48.3067 7.06075 55.4203 14.5515 55.4203C14.5922 55.4203 14.631 55.4203 14.6717 55.4196C17.9625 55.3863 20.5929 54.073 22.4892 51.5157C25.6775 47.2157 25.7797 40.7758 25.5607 39.7201C25.4961 39.4092 25.6415 39.0911 25.9108 38.9553C26.1801 38.8202 26.5004 38.902 26.6839 39.1536C27.591 40.4037 29.6737 41.2763 31.7481 41.2763C33.1807 41.2763 35.0146 39.589 36.7796 36.6476C36.9256 36.4039 37.0759 36.1423 37.2325 35.8688C38.5943 33.4945 40.6475 29.9157 45.1181 29.9157C45.1522 29.9157 45.1864 29.9161 45.2212 29.9164C51.3741 29.9909 52.5302 37.1428 52.7383 39.3327C53.2366 44.5865 49.4221 48.6568 42.7828 49.9555C37.9488 50.9026 34.1275 48.7181 31.9233 46.7405C33.1745 50.2756 35.7322 52.839 37.1145 53.5572C41.567 55.8696 45.6871 55.6586 49.3562 52.9288C54.8195 48.8638 55.4315 41.4654 54.1815 35.8974C53.9398 34.8204 51.5747 25.3742 43.0897 25.3742C36.0229 25.3742 32.3277 32.5919 30.9367 35.309C30.7653 35.6438 30.6298 35.9067 30.5298 36.0771C29.8203 37.2546 28.708 37.9296 27.4475 37.9815C26.1369 38.0354 24.8637 37.3904 24.0585 36.2562C23.0322 34.8104 21.6723 33.796 21.6586 33.7854C21.4897 33.6609 21.3881 33.4559 21.3847 33.2359C21.3809 33.0162 21.4772 32.8079 21.6422 32.6768C21.6704 32.6545 24.4745 30.3923 24.8758 27.1454C25.0938 25.3811 24.5627 23.6179 23.2972 21.9046C21.781 19.7599 19.8393 18.5069 17.5177 18.1691C12.3442 17.4152 6.68085 21.3228 5.18456 22.4411C5.51072 23.3031 6.39352 25.3239 8.27405 27.825C10.9436 24.6316 14.0172 22.6917 16.993 22.3379C17.6354 22.2603 19.2531 22.2008 20.4099 23.2931C21.1939 24.0332 21.6021 25.1305 21.6226 26.5543C21.6704 29.9028 19.0049 31.5046 17.5888 31.884C17.5382 31.8973 17.4863 31.9043 17.4344 31.9043H13.884C13.9855 32.7833 14.2772 34.4903 15.1134 36.8945C17.6261 36.9085 19.4771 37.4843 20.6246 38.6784C21.5328 39.6236 21.9935 40.9176 21.9935 42.5257C21.9935 44.9679 21.1722 50.6484 13.5643 50.6484C8.81299 50.6484 5.00627 46.7857 2.89711 44.034Z" fill="#0E5C63"/>
<path d="M4.41949 22.1915H4.4257M14.5518 56.7835C2.94371 56.7848 1.0231 41.2331 1.00478 41.0753C0.968122 40.7558 1.14549 40.4516 1.43002 40.3478C1.71611 40.2419 2.02891 40.3664 2.18298 40.6433C2.23082 40.7299 7.06789 49.2852 13.5643 49.2852C19.4796 49.2852 20.7212 45.6096 20.7212 42.5257C20.7212 41.283 20.3997 40.3445 19.7383 39.6562C18.7788 38.6584 17.0788 38.1885 14.6963 38.2657C14.4226 38.2577 14.1822 38.1 14.0846 37.831C12.5747 33.6702 12.5573 31.3205 12.5573 31.2227C12.5573 30.8463 12.8421 30.5411 13.1934 30.5411H17.3484C17.8153 30.3937 20.3916 29.4498 20.3503 26.5753C20.3357 25.5515 20.0726 24.7914 19.5687 24.3158C18.7925 23.5836 17.6065 23.6369 17.1337 23.6924C14.2977 24.0299 11.321 26.0275 8.75118 29.317C8.63065 29.4711 8.45329 29.5606 8.26567 29.5613C8.26505 29.5613 8.26411 29.5613 8.26318 29.5613C8.07681 29.5613 7.89944 29.4738 7.7786 29.3213C4.70682 25.4527 3.84608 22.514 3.81098 22.3905C3.73332 22.1182 3.82216 21.8227 4.03307 21.65C4.32196 21.4133 11.1734 15.866 17.6891 16.8182C20.358 17.2069 22.5834 18.6373 24.3033 21.0702C25.785 23.0757 26.4041 25.1878 26.1357 27.3351C25.785 30.142 24.007 32.2404 23.0335 33.1999C23.583 33.6835 24.3859 34.4656 25.0712 35.4308C25.6256 36.2116 26.5004 36.6529 27.3987 36.6196C28.2392 36.585 28.9795 36.1364 29.4302 35.3895C29.5439 35.1965 29.6656 34.9569 29.8216 34.6533C31.1691 32.0211 35.27 24.0109 43.0897 24.0109C52.5489 24.0109 55.1531 34.3951 55.419 35.5792C56.7665 41.5852 56.0726 49.5914 50.0819 54.0484C46.0071 57.0803 41.4576 57.3273 36.5591 54.7833C34.8587 53.9 30.8603 50.0853 30.0589 44.504C30.0142 44.1924 30.1744 43.8889 30.4466 43.7698C30.7168 43.6506 31.0312 43.7445 31.2032 44.0007C32.3358 45.6808 36.5833 49.7811 42.5541 48.6149C48.4803 47.4554 51.8978 43.9515 51.4722 39.4712C51.2914 37.5648 50.3049 31.3415 45.2063 31.2796C41.3918 31.2177 39.684 34.1987 38.3166 36.5823C38.1551 36.8639 38.0004 37.1341 37.8494 37.3851C36.4112 39.782 34.1853 42.6395 31.7481 42.6395C30.203 42.6395 28.3144 42.1803 26.9051 41.1818C26.8657 43.8729 26.1848 48.7234 23.4854 52.3637C21.3384 55.2585 18.3772 56.7455 14.6835 56.7828C14.64 56.7835 14.5953 56.7835 14.5518 56.7835ZM2.89711 44.034C4.0368 48.3067 7.06075 55.4203 14.5515 55.4203C14.5922 55.4203 14.631 55.4203 14.6717 55.4196C17.9625 55.3863 20.5929 54.073 22.4892 51.5157C25.6775 47.2157 25.7797 40.7758 25.5607 39.7201C25.4961 39.4092 25.6415 39.0911 25.9108 38.9553C26.1801 38.8202 26.5004 38.902 26.6839 39.1536C27.591 40.4037 29.6737 41.2763 31.7481 41.2763C33.1807 41.2763 35.0146 39.589 36.7796 36.6476C36.9256 36.4039 37.0759 36.1423 37.2325 35.8688C38.5943 33.4945 40.6475 29.9157 45.1181 29.9157C45.1522 29.9157 45.1864 29.9161 45.2212 29.9164C51.3741 29.9909 52.5302 37.1428 52.7383 39.3327C53.2366 44.5865 49.4221 48.6568 42.7828 49.9555C37.9488 50.9026 34.1275 48.7181 31.9233 46.7405C33.1745 50.2756 35.7322 52.839 37.1145 53.5572C41.567 55.8696 45.6871 55.6586 49.3562 52.9288C54.8195 48.8638 55.4315 41.4654 54.1815 35.8974C53.9398 34.8204 51.5747 25.3742 43.0897 25.3742C36.0229 25.3742 32.3277 32.5919 30.9367 35.309C30.7653 35.6438 30.6298 35.9067 30.5298 36.0771C29.8203 37.2546 28.708 37.9296 27.4475 37.9815C26.1369 38.0354 24.8637 37.3904 24.0585 36.2562C23.0322 34.8104 21.6723 33.796 21.6586 33.7854C21.4897 33.6609 21.3881 33.4559 21.3847 33.2359C21.3809 33.0162 21.4772 32.8079 21.6422 32.6768C21.6704 32.6545 24.4745 30.3923 24.8758 27.1454C25.0938 25.3811 24.5627 23.6179 23.2972 21.9046C21.781 19.7599 19.8393 18.5069 17.5177 18.1691C12.3442 17.4152 6.68085 21.3228 5.18456 22.4411C5.51072 23.3031 6.39352 25.3239 8.27405 27.825C10.9436 24.6316 14.0172 22.6917 16.993 22.3379C17.6354 22.2603 19.2531 22.2008 20.4099 23.2931C21.1939 24.0332 21.6021 25.1305 21.6226 26.5543C21.6704 29.9028 19.0049 31.5046 17.5888 31.884C17.5382 31.8973 17.4863 31.9043 17.4344 31.9043H13.884C13.9855 32.7833 14.2772 34.4903 15.1134 36.8945C17.6261 36.9085 19.4771 37.4843 20.6246 38.6784C21.5328 39.6236 21.9935 40.9176 21.9935 42.5257C21.9935 44.9679 21.1722 50.6484 13.5643 50.6484C8.81299 50.6484 5.00627 46.7857 2.89711 44.034Z" stroke="#0E5C63" stroke-width="0.3"/>
<path d="M34.8933 22.8877C34.6666 22.8877 34.4373 22.8784 34.2031 22.8591C29.7723 22.4894 25.5497 18.5948 21.6532 11.2835C21.4985 10.9933 21.5628 10.6262 21.8051 10.4162C22.0468 10.2052 22.3962 10.2145 22.6286 10.4365C22.6811 10.4864 27.9163 15.429 33.0936 15.0004C35.2394 14.8253 37.1013 13.735 38.6264 11.7604C38.76 11.5884 38.9625 11.4955 39.1707 11.5158C39.3781 11.5348 39.5639 11.6616 39.6677 11.855L42.9019 17.8756C43.033 18.1185 43.0112 18.4224 42.8478 18.6414C42.7124 18.8224 39.6235 22.8877 34.8933 22.8877ZM24.465 13.5546C27.6244 18.5439 30.921 21.2124 34.2901 21.4989C37.9617 21.8104 40.7089 19.1026 41.5705 18.1292L39.0042 13.352C37.3647 15.1688 35.4108 16.1795 33.1849 16.3603C29.868 16.6282 26.6378 15.0064 24.465 13.5546Z" fill="#0E5C63" stroke="#0E5C63" stroke-width="0.3"/>
<path d="M32.1576 14.3916C32.1508 14.3916 32.1439 14.3916 32.1371 14.3913C31.9688 14.3853 31.8091 14.3081 31.6935 14.1763L28.0676 10.0324C27.952 9.9003 27.8905 9.7249 27.8958 9.54419C27.9014 9.36347 27.9735 9.1924 28.0965 9.06893L31.9644 5.18432C32.2204 4.92673 32.6223 4.94104 32.8634 5.21528L36.489 9.35881C36.7294 9.63338 36.7164 10.0647 36.4598 10.3223L32.5925 14.2072C32.4745 14.3257 32.3191 14.3916 32.1576 14.3916ZM29.4309 9.5971L32.1868 12.7465L35.126 9.79413L32.3701 6.64504L29.4309 9.5971Z" fill="#0E5C63" stroke="#0E5C63" stroke-width="0.3"/>
</g>
</g>
<defs>
<clipPath id="clip0_1_48">
<rect width="56" height="61" fill="white"/>
</clipPath>
</defs>
</svg>
